{
  "accessors": [
    {
      "bufferView": 2,
      "componentType": 5126,
      "count": 4384,
      "max": [
        353.881591796875,
        -12.116499900817871,
        941.023681640625
      ],
      "min": [
        267.6029968261719,
        -98.39550018310547,
        940.3139038085938
      ],
      "type": "VEC3"
    },
    {
      "bufferView": 2,
      "byteOffset": 52608,
      "componentType": 5126,
      "count": 4384,
      "max": [
        1.0,
        1.0,
        1.0
      ],
      "min": [
        -1.0,
        -1.0,
        -1.0
      ],
      "type": "VEC3"
    },
    {
      "bufferView": 1,
      "componentType": 5126,
      "count": 4384,
      "max": [
        0.4000000059604645,
        1.0
      ],
      "min": [
        0.30000001192092896,
        0.0
      ],
      "type": "VEC2"
    },
    {
      "bufferView": 0,
      "componentType": 5125,
      "count": 26112,
      "type": "SCALAR"
    },
    {
      "bufferView": 2,
      "byteOffset": 105216,
      "componentType": 5126,
      "count": 21920,
      "max": [
        355.8583068847656,
        -10.139699935913086,
        945.8463134765625
      ],
      "min": [
        265.6263122558594,
        -100.37210083007813,
        940.0382080078125
      ],
      "type": "VEC3"
    },
    {
      "bufferView": 2,
      "byteOffset": 368256,
      "componentType": 5126,
      "count": 21920,
      "max": [
        1.0,
        1.0,
        0.9999998807907104
      ],
      "min": [
        -1.0,
        -1.0,
        -0.9999836683273315
      ],
      "type": "VEC3"
    },
    {
      "bufferView": 1,
      "byteOffset": 35072,
      "componentType": 5126,
      "count": 21920,
      "max": [
        0.6000000238418579,
        1.0
      ],
      "min": [
        0.10000000149011612,
        0.0
      ],
      "type": "VEC2"
    },
    {
      "bufferView": 0,
      "byteOffset": 104448,
      "componentType": 5125,
      "count": 130560,
      "type": "SCALAR"
    },
    {
      "bufferView": 2,
      "byteOffset": 631296,
      "componentType": 5126,
      "count": 30974,
      "max": [
        357.01519775390625,
        -8.982799530029297,
        949.9027709960938
      ],
      "min": [
        264.4693908691406,
        -101.52899932861328,
        944.8865966796875
      ],
      "type": "VEC3"
    },
    {
      "bufferView": 2,
      "byteOffset": 1002984,
      "componentType": 5126,
      "count": 30974,
      "max": [
        1.0,
        1.0,
        1.0
      ],
      "min": [
        -1.0,
        -1.0,
        -1.0
      ],
      "type": "VEC3"
    },
    {
      "bufferView": 1,
      "byteOffset": 210432,
      "componentType": 5126,
      "count": 30974,
      "max": [
        1.0,
        1.0
      ],
      "min": [
        0.0,
        0.0
      ],
      "type": "VEC2"
    },
    {
      "bufferView": 0,
      "byteOffset": 626688,
      "componentType": 5125,
      "count": 182784,
      "type": "SCALAR"
    },
    {
      "bufferView": 2,
      "byteOffset": 1374672,
      "componentType": 5126,
      "count": 196,
      "max": [
        352.6806945800781,
        -13.230999946594238,
        990.9260864257813
      ],
      "min": [
        268.8039855957031,
        -97.10769653320313,
        949.8209838867188
      ],
      "type": "VEC3"
    },
    {
      "bufferView": 2,
      "byteOffset": 1377024,
      "componentType": 5126,
      "count": 196,
      "max": [
        0.9256855249404907,
        0.9256855249404907,
        0.8972097039222717
      ],
      "min": [
        -0.9256855249404907,
        -0.9256855249404907,
        -0.8972097039222717
      ],
      "type": "VEC3"
    },
    {
      "bufferView": 1,
      "byteOffset": 458224,
      "componentType": 5126,
      "count": 196,
      "max": [
        1.0,
        1.0
      ],
      "min": [
        -0.0010999999940395355,
        0.0
      ],
      "type": "VEC2"
    },
    {
      "bufferView": 0,
      "byteOffset": 1357824,
      "componentType": 5125,
      "count": 912,
      "type": "SCALAR"
    },
    {
      "bufferView": 2,
      "byteOffset": 1379376,
      "componentType": 5126,
      "count": 1769,
      "max": [
        318.9248046875,
        -46.95920181274414,
        995.0789794921875
      ],
      "min": [
        302.5599060058594,
        -63.32419967651367,
        992.1314697265625
      ],
      "type": "VEC3"
    },
    {
      "bufferView": 2,
      "byteOffset": 1400604,
      "componentType": 5126,
      "count": 1769,
      "max": [
        1.0,
        1.0,
        1.0
      ],
      "min": [
        -1.0,
        -1.0,
        -1.0
      ],
      "type": "VEC3"
    },
    {
      "bufferView": 1,
      "byteOffset": 459792,
      "componentType": 5126,
      "count": 1769,
      "max": [
        0.9890999794006348,
        1.0
      ],
      "min": [
        -0.010900000110268593,
        0.0
      ],
      "type": "VEC2"
    },
    {
      "bufferView": 0,
      "byteOffset": 1361472,
      "componentType": 5125,
      "count": 10488,
      "type": "SCALAR"
    },
    {
      "bufferView": 2,
      "byteOffset": 1421832,
      "componentType": 5126,
      "count": 600,
      "max": [
        353.3706970214844,
        -12.567000389099121,
        992.1705932617188
      ],
      "min": [
        268.114013671875,
        -97.82360076904297,
        948.6287231445313
      ],
      "type": "VEC3"
    },
    {
      "bufferView": 2,
      "byteOffset": 1429032,
      "componentType": 5126,
      "count": 600,
      "max": [
        0.9949167370796204,
        0.9949167370796204,
        1.0
      ],
      "min": [
        -0.9949167370796204,
        -0.9949167370796204,
        -1.0
      ],
      "type": "VEC3"
    },
    {
      "bufferView": 1,
      "byteOffset": 473944,
      "componentType": 5126,
      "count": 600,
      "max": [
        1.0,
        1.0
      ],
      "min": [
        0.0,
        0.0
      ],
      "type": "VEC2"
    },
    {
      "bufferView": 0,
      "byteOffset": 1403424,
      "componentType": 5125,
      "count": 2832,
      "type": "SCALAR"
    }
  ],
  "asset": {
    "extras": {
      "author": "MiladE46 (https://sketchfab.com/MiladE46)",
      "license": "CC-BY-4.0 (http://creativecommons.org/licenses/by/4.0/)",
      "source": "https://sketchfab.com/3d-models/modern-chandelier-1-0a05b3df783e4a608df159dd6965a195",
      "title": "Modern chandelier 1"
    },
    "generator": "Sketchfab-16.0.0",
    "version": "2.0"
  },
  "bufferViews": [
    {
      "buffer": 0,
      "byteLength": 1414752,
      "name": "floatBufferViews",
      "target": 34963
    },
    {
      "buffer": 0,
      "byteLength": 478744,
      "byteOffset": 1414752,
      "byteStride": 8,
      "name": "floatBufferViews",
      "target": 34962
    },
    {
      "buffer": 0,
      "byteLength": 1436232,
      "byteOffset": 1893496,
      "byteStride": 12,
      "name": "floatBufferViews",
      "target": 34962
    }
  ],
  "buffers": [
    {
      "byteLength": 3329728,
      "uri": "scene.bin"
    }
  ],
  "materials": [
    {
      "doubleSided": true,
      "name": "wire_028028177",
      "pbrMetallicRoughness": {
        "metallicFactor": 0.0,
        "roughnessFactor": 0.9167555019498095
      }
    },
    {
      "doubleSided": true,
      "name": "wire_088199225",
      "pbrMetallicRoughness": {
        "baseColorFactor": [
          0.0,
          0.0,
          0.0,
          1.0
        ],
        "metallicFactor": 0.0,
        "roughnessFactor": 0.9167555019498095
      }
    },
    {
      "doubleSided": true,
      "name": "wire_154154229",
      "pbrMetallicRoughness": {
        "metallicFactor": 0.0,
        "roughnessFactor": 0.9167555019498095
      }
    },
    {
      "doubleSided": true,
      "name": "wire_225088199",
      "pbrMetallicRoughness": {
        "metallicFactor": 0.0,
        "roughnessFactor": 0.9167555019498095
      }
    }
  ],
  "meshes": [
    {
      "name": "Object_0",
      "primitives": [
        {
          "attributes": {
            "NORMAL": 1,
            "POSITION": 0,
            "TEXCOORD_0": 2
          },
          "indices": 3,
          "material": 0,
          "mode": 4
        }
      ]
    },
    {
      "name": "Object_1",
      "primitives": [
        {
          "attributes": {
            "NORMAL": 5,
            "POSITION": 4,
            "TEXCOORD_0": 6
          },
          "indices": 7,
          "material": 0,
          "mode": 4
        }
      ]
    },
    {
      "name": "Object_2",
      "primitives": [
        {
          "attributes": {
            "NORMAL": 9,
            "POSITION": 8,
            "TEXCOORD_0": 10
          },
          "indices": 11,
          "material": 0,
          "mode": 4
        }
      ]
    },
    {
      "name": "Object_3",
      "primitives": [
        {
          "attributes": {
            "NORMAL": 13,
            "POSITION": 12,
            "TEXCOORD_0": 14
          },
          "indices": 15,
          "material": 1,
          "mode": 4
        }
      ]
    },
    {
      "name": "Object_4",
      "primitives": [
        {
          "attributes": {
            "NORMAL": 17,
            "POSITION": 16,
            "TEXCOORD_0": 18
          },
          "indices": 19,
          "material": 2,
          "mode": 4
        }
      ]
    },
    {
      "name": "Object_5",
      "primitives": [
        {
          "attributes": {
            "NORMAL": 21,
            "POSITION": 20,
            "TEXCOORD_0": 22
          },
          "indices": 23,
          "material": 3,
          "mode": 4
        }
      ]
    }
  ],
  "nodes": [
    {
      "children": [
        1
      ],
      "matrix": [
        1.0,
        0.0,
        0.0,
        0.0,
        0.0,
        2.220446049250313e-16,
        -1.0,
        0.0,
        0.0,
        1.0,
        2.220446049250313e-16,
        0.0,
        0.0,
        0.0,
        0.0,
        1.0
      ],
      "name": "Sketchfab_model"
    },
    {
      "children": [
        2,
        3,
        4,
        5,
        6,
        7
      ],
      "name": "obj.obj.cleaner.materialmerger.gles"
    },
    {
      "mesh": 0,
      "name": "Object_2"
    },
    {
      "mesh": 1,
      "name": "Object_3"
    },
    {
      "mesh": 2,
      "name": "Object_4"
    },
    {
      "mesh": 3,
      "name": "Object_5"
    },
    {
      "mesh": 4,
      "name": "Object_6"
    },
    {
      "mesh": 5,
      "name": "Object_7"
    }
  ],
  "scene": 0,
  "scenes": [
    {
      "name": "Sketchfab_Scene",
      "nodes": [
        0
      ]
    }
  ]
}
